# xmcd
#
# Track frame offsets: 
#        150
#        17020
#        46485
#        66478
#        83343
#        107233
#        124168
#        148948
#        175878
#        196553
#
# Disc length: 2970 seconds
#
# Revision: 0
# Processed by: cddbd v1.5.2PL0 Copyright (c) Steve Scherf et al.
# Submitted via: ExactAudioCopy v1.0b3
#
DISCID=860b980a
DTITLE=Che Linh, Son Tuyen, Thien Trang - Co Lai Do Ben Ha
DYEAR=1991
DGENRE=
TTITLE0=Che Linh - Giua troi thuong nho
TTITLE1=Son Tuyen - Co lai do Ben Ha
TTITLE2=Che Linh - Hai loi mong
TTITLE3=Son Tuyen - Nguoi yeu co don
TTITLE4=Thien Trang - Thoang giac mo qua
TTITLE5=Che Linh - Hai nam roi
TTITLE6=Thien Trang - Coi buon
TTITLE7=Che Linh - Chuyen tau hoang hon 2
TTITLE8=Thien Trang - Khach la do xua
TTITLE9=Son Tuyen - Than phan
EXTD=
EXTT0=
EXTT1=
EXTT2=
EXTT3=
EXTT4=
EXTT5=
EXTT6=
EXTT7=
EXTT8=
EXTT9=
PLAYORDER=
